<svg width="64" height="158" viewBox="0 0 64 158" fill="none" xmlns="http://www.w3.org/2000/svg">
<rect width="64" height="158" fill="#E5E5E5"/>
<g clip-path="url(#clip0_0:1)">
<rect width="1440" height="820" transform="translate(-688)" fill="#121214"/>
<circle cx="193" cy="-137" r="559" transform="rotate(-180 193 -137)" fill="url(#paint0_radial_0:1)"/>
<circle cx="-129" cy="-137" r="559" transform="rotate(-180 -129 -137)" fill="url(#paint1_radial_0:1)"/>
<rect x="-147" y="140" width="358" height="540" fill="#202024"/>
<mask id="mask0_0:1" style="mask-type:alpha" maskUnits="userSpaceOnUse" x="-147" y="140" width="358" height="540">
<rect x="-147" y="140" width="358" height="540" fill="#202024"/>
</mask>
<g mask="url(#mask0_0:1)">
<path d="M211 201.492V-256.824L31.5 -360L-148 -256.824V201.492L31.5 304.674L211 201.492Z" fill="url(#paint2_linear_0:1)"/>
<g style="mix-blend-mode:luminosity" opacity="0.4">
<path d="M-146.199 99.3496V202.159L-56.8994 253.569L32.4004 202.159V99.3496L-56.8994 47.9399L-146.199 99.3496Z" fill="url(#paint3_linear_0:1)"/>
<path d="M-146.199 -3.46506V99.3445L-56.8994 150.754L32.4004 99.3445V-3.46506L-56.8994 -54.8747L-146.199 -3.46506Z" fill="url(#paint4_linear_0:1)"/>
<path d="M32.4004 202.159V99.3492L121.7 47.9395L211 99.3492V202.159L121.7 253.568L32.4004 202.159Z" fill="url(#paint5_linear_0:1)"/>
<path d="M211 -3.46506V99.3445L121.7 150.754L32.4004 99.3445V-3.46506L121.7 -54.8747L211 -3.46506Z" fill="url(#paint6_linear_0:1)"/>
<path d="M121.7 253.59L121.7 150.781L32.4004 99.3711L-56.8994 150.781L-56.8994 253.59L32.4004 305L121.7 253.59Z" fill="url(#paint7_linear_0:1)"/>
</g>
</g>
<rect x="-8" y="156" width="80" height="8" fill="#121214"/>
<rect width="64" height="158" fill="url(#paint8_linear_0:1)"/>
</g>
<defs>
<radialGradient id="paint0_radial_0:1" cx="0" cy="0" r="1" gradientUnits="userSpaceOnUse" gradientTransform="translate(193 -137) rotate(90) scale(559)">
<stop stop-color="#FFC323"/>
<stop offset="1" stop-color="#121214" stop-opacity="0"/>
</radialGradient>
<radialGradient id="paint1_radial_0:1" cx="0" cy="0" r="1" gradientUnits="userSpaceOnUse" gradientTransform="translate(-129 -137) rotate(90) scale(559)">
<stop stop-color="#FF3D6E"/>
<stop offset="1" stop-color="#121214" stop-opacity="0"/>
</radialGradient>
<linearGradient id="paint2_linear_0:1" x1="-148" y1="-344.234" x2="291.976" y2="-283.679" gradientUnits="userSpaceOnUse">
<stop stop-color="#FF008E"/>
<stop offset="1" stop-color="#FFCD1E"/>
</linearGradient>
<linearGradient id="paint3_linear_0:1" x1="-56.8994" y1="248.84" x2="-145.815" y2="97.1039" gradientUnits="userSpaceOnUse">
<stop stop-color="#8257E5"/>
<stop offset="1" stop-color="#FF008E" stop-opacity="0"/>
</linearGradient>
<linearGradient id="paint4_linear_0:1" x1="-56.8994" y1="146.026" x2="-145.815" y2="-5.71074" gradientUnits="userSpaceOnUse">
<stop stop-color="#8257E5"/>
<stop offset="1" stop-color="#FF008E" stop-opacity="0"/>
</linearGradient>
<linearGradient id="paint5_linear_0:1" x1="211" y1="207.937" x2="32.6761" y2="100.328" gradientUnits="userSpaceOnUse">
<stop stop-color="#FF008E" stop-opacity="0"/>
<stop offset="1" stop-color="#FFCD1E"/>
</linearGradient>
<linearGradient id="paint6_linear_0:1" x1="121.7" y1="146.026" x2="210.615" y2="-5.71073" gradientUnits="userSpaceOnUse">
<stop stop-color="#8257E5"/>
<stop offset="1" stop-color="#FF008E" stop-opacity="0"/>
</linearGradient>
<linearGradient id="paint7_linear_0:1" x1="32.4004" y1="104.099" x2="121.316" y2="255.836" gradientUnits="userSpaceOnUse">
<stop stop-color="#8257E5"/>
<stop offset="1" stop-color="#FF008E" stop-opacity="0"/>
</linearGradient>
<linearGradient id="paint8_linear_0:1" x1="-38.5" y1="4.93019e-08" x2="94" y2="158" gradientUnits="userSpaceOnUse">
<stop stop-color="#FF008E"/>
<stop offset="1" stop-color="#FFCD1E"/>
</linearGradient>
<clipPath id="clip0_0:1">
<rect width="1440" height="820" fill="white" transform="translate(-688)"/>
</clipPath>
</defs>
</svg>
